{
	"asset":{
		"version":"2.0",
		"generator":"Created using the official Cinema 4D glTF Exporter 1.000x290161"
	},
	"scenes":[{
		"nodes":[0,
		3,
		6,
		9,
		10,
		11,
		12]
	}],
	"nodes":[{
		"name":"ブール.2",
		"translation":[-0.0192728228867054,
		5.9670000076293949,
		0.0],
		"rotation":[0.0,
		0.0,
		0.0,
		-1.0],
		"scale":[1.0,
		1.0,
		1.0],
		"children":[1,
		2]
	},
	{
		"name":"立方体.1",
		"translation":[0.5985456705093384,
		5.835000038146973,
		3.54913592338562],
		"rotation":[0.0,
		0.0,
		0.0,
		-1.0],
		"scale":[1.0,
		1.0,
		1.0],
		"mesh":0
	},
	{
		"name":"押し出し",
		"translation":[0.0,
		0.2667301893234253,
		4.124094009399414],
		"rotation":[0.0,
		0.0,
		0.0,
		-1.0],
		"scale":[1.0,
		1.0,
		1.0],
		"mesh":1
	},
	{
		"name":"ブール.1",
		"children":[4,
		5]
	},
	{
		"name":"立方体",
		"translation":[3.54237699508667,
		11.800000190734864,
		0.6002089977264404],
		"rotation":[0.0,
		0.0,
		0.0,
		-1.0],
		"scale":[1.0,
		1.0,
		1.0],
		"mesh":2
	},
	{
		"name":"円柱.1",
		"translation":[3.5626320838928224,
		1.0414682626724244,
		-0.7193781733512878],
		"rotation":[0.0,
		0.0,
		0.7071067690849304,
		-0.7071067690849304],
		"scale":[1.0,
		1.0,
		1.0],
		"mesh":3
	},
	{
		"name":"ブール",
		"children":[7,
		8]
	},
	{
		"name":"立方体",
		"translation":[0.5807557106018066,
		0.0,
		0.5925366282463074],
		"rotation":[0.0,
		0.0,
		0.0,
		-1.0],
		"scale":[1.0,
		1.0,
		1.0],
		"mesh":4
	},
	{
		"name":"円柱.1",
		"mesh":5
	},
	{
		"name":"チューブ.2",
		"mesh":6
	},
	{
		"name":"チューブ.1",
		"mesh":7
	},
	{
		"name":"チューブ",
		"mesh":8
	},
	{
		"name":"円柱",
		"mesh":9
	}],
	"meshes":[{
		"primitives":[{
			"attributes":{
				"POSITION":1,
				"NORMAL":2,
				"TEXCOORD_0":3
			},
			"indices":0,
			"material":0
		}]
	},
	{
		"primitives":[{
			"attributes":{
				"POSITION":5,
				"NORMAL":6,
				"TEXCOORD_0":7
			},
			"indices":4,
			"material":0
		}]
	},
	{
		"primitives":[{
			"attributes":{
				"POSITION":9,
				"NORMAL":10,
				"TEXCOORD_0":11
			},
			"indices":8,
			"material":0
		}]
	},
	{
		"primitives":[{
			"attributes":{
				"POSITION":13,
				"NORMAL":14,
				"TEXCOORD_0":15
			},
			"indices":12,
			"material":0
		}]
	},
	{
		"primitives":[{
			"attributes":{
				"POSITION":17,
				"NORMAL":18,
				"TEXCOORD_0":19
			},
			"indices":16,
			"material":0
		}]
	},
	{
		"primitives":[{
			"attributes":{
				"POSITION":21,
				"NORMAL":22,
				"TEXCOORD_0":23
			},
			"indices":20,
			"material":0
		}]
	},
	{
		"primitives":[{
			"attributes":{
				"POSITION":25,
				"NORMAL":26,
				"TEXCOORD_0":27
			},
			"indices":24,
			"material":0
		}]
	},
	{
		"primitives":[{
			"attributes":{
				"POSITION":29,
				"NORMAL":30,
				"TEXCOORD_0":31
			},
			"indices":28,
			"material":0
		}]
	},
	{
		"primitives":[{
			"attributes":{
				"POSITION":33,
				"NORMAL":34,
				"TEXCOORD_0":35
			},
			"indices":32,
			"material":0
		}]
	},
	{
		"primitives":[{
			"attributes":{
				"POSITION":37,
				"NORMAL":38,
				"TEXCOORD_0":39
			},
			"indices":36,
			"material":0
		}]
	}],
	"accessors":[{
		"bufferView":0,
		"type":"SCALAR",
		"componentType":5123,
		"count":72,
		"max":[31],
		"byteOffset":0,
		"min":[0]
	},
	{
		"bufferView":1,
		"type":"VEC3",
		"componentType":5126,
		"count":32,
		"max":[3.0,
		12.0,
		0.05000000074505806],
		"byteOffset":0,
		"min":[-3.0,
		-12.0,
		-0.05000000074505806]
	},
	{
		"bufferView":1,
		"type":"VEC3",
		"componentType":5126,
		"count":32,
		"max":[1.0,
		1.0,
		1.0],
		"byteOffset":12,
		"min":[-1.0,
		-1.0,
		-1.0]
	},
	{
		"bufferView":1,
		"type":"VEC2",
		"componentType":5126,
		"count":32,
		"max":[1.0,
		1.0],
		"byteOffset":24,
		"min":[0.0,
		0.0]
	},
	{
		"bufferView":2,
		"type":"SCALAR",
		"componentType":5123,
		"count":24,
		"max":[17],
		"byteOffset":0,
		"min":[0]
	},
	{
		"bufferView":3,
		"type":"VEC3",
		"componentType":5126,
		"count":18,
		"max":[0.1745569407939911,
		-3.640517473220825,
		-0.5249579548835754],
		"byteOffset":0,
		"min":[-1.471670150756836,
		-6.2528910636901859,
		-0.6249579787254334]
	},
	{
		"bufferView":3,
		"type":"VEC3",
		"componentType":5126,
		"count":18,
		"max":[0.9940900802612305,
		1.0,
		0.0],
		"byteOffset":12,
		"min":[-0.9924755692481995,
		-0.9837977290153503,
		0.0]
	},
	{
		"bufferView":3,
		"type":"VEC2",
		"componentType":5126,
		"count":18,
		"max":[1.0,
		0.989380955696106],
		"byteOffset":24,
		"min":[0.0,
		0.48938095569610598]
	},
	{
		"bufferView":4,
		"type":"SCALAR",
		"componentType":5123,
		"count":318,
		"max":[113],
		"byteOffset":0,
		"min":[0]
	},
	{
		"bufferView":5,
		"type":"VEC3",
		"componentType":5126,
		"count":114,
		"max":[0.050039127469062808,
		12.0,
		3.0],
		"byteOffset":0,
		"min":[-0.050039127469062808,
		-12.0,
		-3.0]
	},
	{
		"bufferView":5,
		"type":"VEC3",
		"componentType":5126,
		"count":114,
		"max":[1.0,
		1.0,
		1.0],
		"byteOffset":12,
		"min":[-1.0,
		-1.0,
		-1.0]
	},
	{
		"bufferView":5,
		"type":"VEC2",
		"componentType":5126,
		"count":114,
		"max":[1.0,
		1.0],
		"byteOffset":24,
		"min":[0.0,
		0.0]
	},
	{
		"bufferView":6,
		"type":"SCALAR",
		"componentType":5123,
		"count":270,
		"max":[93],
		"byteOffset":0,
		"min":[0]
	},
	{
		"bufferView":7,
		"type":"VEC3",
		"componentType":5126,
		"count":94,
		"max":[1.0163809061050416,
		0.02978387475013733,
		1.2999999523162842],
		"byteOffset":0,
		"min":[-1.2999999523162842,
		-0.07029438018798828,
		-1.2999999523162842]
	},
	{
		"bufferView":7,
		"type":"VEC3",
		"componentType":5126,
		"count":94,
		"max":[0.9998248815536499,
		0.0,
		0.9998248815536499],
		"byteOffset":12,
		"min":[-1.0,
		0.0,
		-0.9998248815536499]
	},
	{
		"bufferView":7,
		"type":"VEC2",
		"componentType":5126,
		"count":94,
		"max":[0.8928570747375488,
		1.0],
		"byteOffset":24,
		"min":[0.1071428507566452,
		0.0]
	},
	{
		"bufferView":8,
		"type":"SCALAR",
		"componentType":5123,
		"count":444,
		"max":[155],
		"byteOffset":0,
		"min":[0]
	},
	{
		"bufferView":9,
		"type":"VEC3",
		"componentType":5126,
		"count":156,
		"max":[3.0,
		0.014999999664723874,
		3.0],
		"byteOffset":0,
		"min":[-3.0,
		-0.014999999664723874,
		-3.0]
	},
	{
		"bufferView":9,
		"type":"VEC3",
		"componentType":5126,
		"count":156,
		"max":[1.0,
		1.0,
		1.0],
		"byteOffset":12,
		"min":[-1.0,
		-1.0,
		-1.0]
	},
	{
		"bufferView":9,
		"type":"VEC2",
		"componentType":5126,
		"count":156,
		"max":[1.0,
		1.0],
		"byteOffset":24,
		"min":[0.0,
		0.0]
	},
	{
		"bufferView":10,
		"type":"SCALAR",
		"componentType":5123,
		"count":396,
		"max":[133],
		"byteOffset":0,
		"min":[0]
	},
	{
		"bufferView":11,
		"type":"VEC3",
		"componentType":5126,
		"count":134,
		"max":[1.9500000476837159,
		0.014999999664723874,
		1.947791337966919],
		"byteOffset":0,
		"min":[-1.9500000476837159,
		-0.014999999664723874,
		-1.947791337966919]
	},
	{
		"bufferView":11,
		"type":"VEC3",
		"componentType":5126,
		"count":134,
		"max":[0.9998739361763,
		0.0,
		0.9994968771934509],
		"byteOffset":12,
		"min":[-0.9998739361763,
		0.0,
		-0.9994968771934509]
	},
	{
		"bufferView":11,
		"type":"VEC2",
		"componentType":5126,
		"count":134,
		"max":[1.0,
		0.7685388326644898],
		"byteOffset":24,
		"min":[0.0,
		0.23146119713783265]
	},
	{
		"bufferView":12,
		"type":"SCALAR",
		"componentType":5123,
		"count":1584,
		"max":[531],
		"byteOffset":0,
		"min":[0]
	},
	{
		"bufferView":13,
		"type":"VEC3",
		"componentType":5126,
		"count":532,
		"max":[1.899999976158142,
		0.014999999664723874,
		1.8978478908538819],
		"byteOffset":0,
		"min":[-1.899999976158142,
		-0.014999999664723874,
		-1.8978478908538819]
	},
	{
		"bufferView":13,
		"type":"VEC3",
		"componentType":5126,
		"count":532,
		"max":[0.9998739361763,
		1.0,
		0.9994968771934509],
		"byteOffset":12,
		"min":[-0.9998739361763,
		-1.0,
		-0.9994968771934509]
	},
	{
		"bufferView":13,
		"type":"VEC2",
		"componentType":5126,
		"count":532,
		"max":[1.0,
		1.0],
		"byteOffset":24,
		"min":[0.0,
		0.0]
	},
	{
		"bufferView":14,
		"type":"SCALAR",
		"componentType":5123,
		"count":1584,
		"max":[531],
		"byteOffset":0,
		"min":[0]
	},
	{
		"bufferView":15,
		"type":"VEC3",
		"componentType":5126,
		"count":532,
		"max":[1.2999999523162842,
		0.014999999664723874,
		1.2985275983810425],
		"byteOffset":0,
		"min":[-1.2999999523162842,
		-0.014999999664723874,
		-1.2985275983810425]
	},
	{
		"bufferView":15,
		"type":"VEC3",
		"componentType":5126,
		"count":532,
		"max":[0.9998739361763,
		1.0,
		0.9994968771934509],
		"byteOffset":12,
		"min":[-0.9998739361763,
		-1.0,
		-0.9994968771934509]
	},
	{
		"bufferView":15,
		"type":"VEC2",
		"componentType":5126,
		"count":532,
		"max":[1.0,
		1.0],
		"byteOffset":24,
		"min":[0.0,
		0.0]
	},
	{
		"bufferView":16,
		"type":"SCALAR",
		"componentType":5123,
		"count":1584,
		"max":[531],
		"byteOffset":0,
		"min":[0]
	},
	{
		"bufferView":17,
		"type":"VEC3",
		"componentType":5126,
		"count":532,
		"max":[0.8299999833106995,
		0.014999999664723874,
		0.829059898853302],
		"byteOffset":0,
		"min":[-0.8299999833106995,
		-0.014999999664723874,
		-0.829059898853302]
	},
	{
		"bufferView":17,
		"type":"VEC3",
		"componentType":5126,
		"count":532,
		"max":[0.9998738765716553,
		1.0,
		0.9994968771934509],
		"byteOffset":12,
		"min":[-0.9998738765716553,
		-1.0,
		-0.9994968771934509]
	},
	{
		"bufferView":17,
		"type":"VEC2",
		"componentType":5126,
		"count":532,
		"max":[1.0,
		1.0],
		"byteOffset":24,
		"min":[0.0,
		0.0]
	},
	{
		"bufferView":18,
		"type":"SCALAR",
		"componentType":5123,
		"count":792,
		"max":[267],
		"byteOffset":0,
		"min":[0]
	},
	{
		"bufferView":19,
		"type":"VEC3",
		"componentType":5126,
		"count":268,
		"max":[0.30000001192092898,
		0.014999999664723874,
		0.29966020584106448],
		"byteOffset":0,
		"min":[-0.30000001192092898,
		-0.014999999664723874,
		-0.29966020584106448]
	},
	{
		"bufferView":19,
		"type":"VEC3",
		"componentType":5126,
		"count":268,
		"max":[0.9998739361763,
		1.0,
		0.9994968771934509],
		"byteOffset":12,
		"min":[-0.9998739361763,
		-1.0,
		-0.9994968771934509]
	},
	{
		"bufferView":19,
		"type":"VEC2",
		"componentType":5126,
		"count":268,
		"max":[1.0,
		1.0],
		"byteOffset":24,
		"min":[0.0,
		0.0]
	}],
	"bufferViews":[{
		"buffer":0,
		"byteOffset":0,
		"byteLength":144,
		"target":34963
	},
	{
		"buffer":0,
		"byteOffset":144,
		"byteLength":1024,
		"target":34962,
		"byteStride":32
	},
	{
		"buffer":1,
		"byteOffset":0,
		"byteLength":48,
		"target":34963
	},
	{
		"buffer":1,
		"byteOffset":48,
		"byteLength":576,
		"target":34962,
		"byteStride":32
	},
	{
		"buffer":2,
		"byteOffset":0,
		"byteLength":636,
		"target":34963
	},
	{
		"buffer":2,
		"byteOffset":636,
		"byteLength":3648,
		"target":34962,
		"byteStride":32
	},
	{
		"buffer":3,
		"byteOffset":0,
		"byteLength":540,
		"target":34963
	},
	{
		"buffer":3,
		"byteOffset":540,
		"byteLength":3008,
		"target":34962,
		"byteStride":32
	},
	{
		"buffer":4,
		"byteOffset":0,
		"byteLength":888,
		"target":34963
	},
	{
		"buffer":4,
		"byteOffset":888,
		"byteLength":4992,
		"target":34962,
		"byteStride":32
	},
	{
		"buffer":5,
		"byteOffset":0,
		"byteLength":792,
		"target":34963
	},
	{
		"buffer":5,
		"byteOffset":792,
		"byteLength":4288,
		"target":34962,
		"byteStride":32
	},
	{
		"buffer":6,
		"byteOffset":0,
		"byteLength":3168,
		"target":34963
	},
	{
		"buffer":6,
		"byteOffset":3168,
		"byteLength":17024,
		"target":34962,
		"byteStride":32
	},
	{
		"buffer":7,
		"byteOffset":0,
		"byteLength":3168,
		"target":34963
	},
	{
		"buffer":7,
		"byteOffset":3168,
		"byteLength":17024,
		"target":34962,
		"byteStride":32
	},
	{
		"buffer":8,
		"byteOffset":0,
		"byteLength":3168,
		"target":34963
	},
	{
		"buffer":8,
		"byteOffset":3168,
		"byteLength":17024,
		"target":34962,
		"byteStride":32
	},
	{
		"buffer":9,
		"byteOffset":0,
		"byteLength":1584,
		"target":34963
	},
	{
		"buffer":9,
		"byteOffset":1584,
		"byteLength":8576,
		"target":34962,
		"byteStride":32
	}],
	"buffers":[{
		"uri":"data:application/octet-stream;base64,",
		"byteLength":1168
	},
	{
		"uri":"data:application/octet-stream;base64,",
		"byteLength":624
	},
	{
		"uri":"data:application/octet-stream;base64,",
		"byteLength":4284
	},
	{
		"uri":"data:application/octet-stream;base64,",
		"byteLength":3548
	},
	{
		"uri":"data:application/octet-stream;base64,",
		"byteLength":5880
	},
	{
		"uri":"data:application/octet-stream;base64,",
		"byteLength":5080
	},
	{
		"uri":"data:application/octet-stream;base64,",
		"byteLength":20192
	},
	{
		"uri":"data:application/octet-stream;base64,",
		"byteLength":20192
	},
	{
		"uri":"data:application/octet-stream;base64,",
		"byteLength":20192
	},
	{
		"uri":"data:application/octet-stream;base64,",
		"byteLength":10160
	}],
	"images":[{
		"uri":"data:image/jpeg;base64,"
	}],
	"samplers":[{
		"magFilter":9729,
		"minFilter":9729,
		"wrapS":10497,
		"wrapT":10497
	}],
	"textures":[{
		"sampler":0,
		"source":0
	}],
	"materials":[{
		"pbrMetallicRoughness":{
			"baseColorFactor":[1.0,
			1.0,
			1.0,
			1.0],
			"metallicFactor":1.0,
			"roughnessFactor":0.5
		},
		"normalTexture":{
			"index":0,
			"scale":0.4
		},
		"emissiveFactor":[0.0,
		0.0,
		0.0],
		"alphaMode":"OPAQUE",
		"doubleSided":false,
		"name":"Concrete 11 - Weathered - Texture"
	}]
}