{
	"asset":{
		"version":"2.0",
		"generator":"Created using the official Cinema 4D glTF Exporter 1.000x290161"
	},
	"scenes":[{
		"nodes":[0,
		1,
		2,
		3]
	}],
	"nodes":[{
		"name":"円柱",
		"translation":[0.0,
		0.2716934382915497,
		1.6893094778060914],
		"rotation":[0.478170782327652,
		0.0,
		0.0,
		-0.8782668709754944],
		"scale":[1.0,
		1.0,
		1.0],
		"mesh":0
	},
	{
		"name":"チューブ.1",
		"translation":[0.0,
		0.4230191111564636,
		1.4604957103729249],
		"rotation":[0.47816771268844607,
		0.0,
		0.0,
		-0.8782685399055481],
		"scale":[1.0,
		1.0,
		1.0],
		"mesh":1
	},
	{
		"name":"チューブ",
		"translation":[0.0,
		-1.580471396446228,
		0.0],
		"rotation":[0.0,
		0.0,
		0.0,
		-1.0],
		"scale":[1.0,
		1.0,
		1.0],
		"mesh":2
	},
	{
		"name":"straw",
		"children":[4]
	},
	{
		"name":"クロスサーフェイス",
		"children":[5]
	},
	{
		"name":"ロフト",
		"children":[6]
	},
	{
		"name":"クローナー",
		"mesh":3
	}],
	"meshes":[{
		"primitives":[{
			"attributes":{
				"POSITION":1,
				"NORMAL":2,
				"TEXCOORD_0":3
			},
			"indices":0,
			"material":0
		}]
	},
	{
		"primitives":[{
			"attributes":{
				"POSITION":5,
				"NORMAL":6,
				"TEXCOORD_0":7
			},
			"indices":4,
			"material":1
		}]
	},
	{
		"primitives":[{
			"attributes":{
				"POSITION":9,
				"NORMAL":10,
				"TEXCOORD_0":11
			},
			"indices":8,
			"material":1
		}]
	},
	{
		"primitives":[{
			"attributes":{
				"POSITION":13,
				"NORMAL":14,
				"TEXCOORD_0":15
			},
			"indices":12,
			"material":1
		}]
	}],
	"accessors":[{
		"bufferView":0,
		"type":"SCALAR",
		"componentType":5123,
		"count":432,
		"max":[147],
		"byteOffset":0,
		"min":[0]
	},
	{
		"bufferView":1,
		"type":"VEC3",
		"componentType":5126,
		"count":148,
		"max":[0.47999998927116396,
		0.2609471380710602,
		0.47999998927116396],
		"byteOffset":0,
		"min":[-0.47999998927116396,
		-0.2609471380710602,
		-0.47999998927116396]
	},
	{
		"bufferView":1,
		"type":"VEC3",
		"componentType":5126,
		"count":148,
		"max":[0.9995750784873962,
		1.0,
		0.9995750784873962],
		"byteOffset":12,
		"min":[-0.9995750784873962,
		-1.0,
		-0.9995750784873962]
	},
	{
		"bufferView":1,
		"type":"VEC2",
		"componentType":5126,
		"count":148,
		"max":[1.0,
		1.0],
		"byteOffset":24,
		"min":[0.0,
		0.0]
	},
	{
		"bufferView":2,
		"type":"SCALAR",
		"componentType":5123,
		"count":2376,
		"max":[1066],
		"byteOffset":0,
		"min":[0]
	},
	{
		"bufferView":3,
		"type":"VEC3",
		"componentType":5126,
		"count":1067,
		"max":[0.5130000114440918,
		0.5886493921279907,
		0.5124189257621765],
		"byteOffset":0,
		"min":[-0.5130000114440918,
		-0.5886493921279907,
		-0.5124189257621765]
	},
	{
		"bufferView":3,
		"type":"VEC3",
		"componentType":5126,
		"count":1067,
		"max":[0.9998739361763,
		1.0,
		0.9994968771934509],
		"byteOffset":12,
		"min":[-0.9998739361763,
		-1.0,
		-0.9994968771934509]
	},
	{
		"bufferView":3,
		"type":"VEC2",
		"componentType":5126,
		"count":1067,
		"max":[1.0,
		1.0],
		"byteOffset":24,
		"min":[0.0,
		0.0]
	},
	{
		"bufferView":4,
		"type":"SCALAR",
		"componentType":5123,
		"count":1584,
		"max":[803],
		"byteOffset":0,
		"min":[0]
	},
	{
		"bufferView":5,
		"type":"VEC3",
		"componentType":5126,
		"count":804,
		"max":[0.5130000114440918,
		1.6219408512115479,
		0.5124189257621765],
		"byteOffset":0,
		"min":[-0.5130000114440918,
		-1.6219408512115479,
		-0.5124189257621765]
	},
	{
		"bufferView":5,
		"type":"VEC3",
		"componentType":5126,
		"count":804,
		"max":[0.9998739361763,
		1.0,
		0.9994968771934509],
		"byteOffset":12,
		"min":[-0.9998739361763,
		-1.0,
		-0.9994968771934509]
	},
	{
		"bufferView":5,
		"type":"VEC2",
		"componentType":5126,
		"count":804,
		"max":[1.0,
		1.0],
		"byteOffset":24,
		"min":[0.0,
		0.0]
	},
	{
		"bufferView":6,
		"type":"SCALAR",
		"componentType":5123,
		"count":318108,
		"max":[54099],
		"byteOffset":0,
		"min":[0]
	},
	{
		"bufferView":7,
		"type":"VEC3",
		"componentType":5126,
		"count":54100,
		"max":[0.5097177028656006,
		1.4393342733383179,
		1.26472806930542],
		"byteOffset":0,
		"min":[-0.5097177028656006,
		-0.013646797277033329,
		-0.5084918737411499]
	},
	{
		"bufferView":7,
		"type":"VEC3",
		"componentType":5126,
		"count":54100,
		"max":[0.9994734525680542,
		0.9999939203262329,
		0.9999997019767761],
		"byteOffset":12,
		"min":[-0.9994733929634094,
		-0.9999970197677612,
		-0.9999997019767761]
	},
	{
		"bufferView":7,
		"type":"VEC2",
		"componentType":5126,
		"count":54100,
		"max":[1.0,
		1.0],
		"byteOffset":24,
		"min":[0.0,
		0.0]
	}],
	"bufferViews":[{
		"buffer":0,
		"byteOffset":0,
		"byteLength":864,
		"target":34963
	},
	{
		"buffer":0,
		"byteOffset":864,
		"byteLength":4736,
		"target":34962,
		"byteStride":32
	},
	{
		"buffer":1,
		"byteOffset":0,
		"byteLength":4752,
		"target":34963
	},
	{
		"buffer":1,
		"byteOffset":4752,
		"byteLength":34144,
		"target":34962,
		"byteStride":32
	},
	{
		"buffer":2,
		"byteOffset":0,
		"byteLength":3168,
		"target":34963
	},
	{
		"buffer":2,
		"byteOffset":3168,
		"byteLength":25728,
		"target":34962,
		"byteStride":32
	},
	{
		"buffer":3,
		"byteOffset":0,
		"byteLength":636216,
		"target":34963
	},
	{
		"buffer":3,
		"byteOffset":636216,
		"byteLength":1731200,
		"target":34962,
		"byteStride":32
	}],
	"buffers":[{
		"uri":"data:application/octet-stream;base64,",
		"byteLength":5600
	},
	{
		"uri":"data:application/octet-stream;base64,",
		"byteLength":38896
	},
	{
		"uri":"data:application/octet-stream;base64,",
		"byteLength":28896
	},
	{
		"uri":"data:application/octet-stream;base64,",
		"byteLength":2367416
	}],
	"materials":[{
		"pbrMetallicRoughness":{
			"baseColorFactor":[0.8,
			0.8,
			0.8,
			1.0],
			"metallicFactor":1.0,
			"roughnessFactor":0.16
		},
		"emissiveFactor":[1.0,
		1.0,
		1.0],
		"alphaMode":"OPAQUE",
		"doubleSided":false,
		"name":"Shade inner"
	},
	{
		"pbrMetallicRoughness":{
			"baseColorFactor":[0.12,
			0.12,
			0.12,
			1.0],
			"metallicFactor":0.0,
			"roughnessFactor":0.31
		},
		"emissiveFactor":[0.0,
		0.0,
		0.0],
		"alphaMode":"OPAQUE",
		"doubleSided":false,
		"name":"Mat"
	}]
}